<svg width="38" height="40" viewBox="0 0 38 40" fill="none" xmlns="http://www.w3.org/2000/svg">
<path d="M15.7497 19.0647C17.6035 17.8337 18.1868 16.6582 18.1868 13.689C18.1868 9.7304 15.2771 6.52132 11.6878 6.52132C5.99141 6.54459 0.314484 6.52124 0.314484 6.52124V33.4H14.9373C17.6292 33.4 19.8116 30.9932 19.8116 28.0243V26.2324C19.8116 23.2632 19.9123 20.1846 15.7497 19.0647ZM5.18875 11.897H10.8754C12.2214 11.897 13.3126 13.1004 13.3126 14.5849C13.3126 16.0693 12.2214 17.2728 10.8754 17.2728H5.18875V11.897ZM12.5002 28.0243H5.18875V22.6485H12.5002C13.8461 22.6485 14.9373 23.8519 14.9373 25.3364C14.9373 26.8209 13.8461 28.0243 12.5002 28.0243Z" fill="#2196F3"/>
<path d="M34.4344 6.52112H23.0611V11.8969H34.4344V6.52112Z" fill="#2196F3"/>
<path d="M32.6471 28.1702C31.0692 30.5487 28.0417 31.066 25.8851 29.3257C25.0925 28.686 24.4951 27.7955 24.1724 26.7725H37.5831C37.6476 26.328 37.6819 25.8787 37.6855 25.4286C37.5711 20.1096 33.5706 15.8989 28.7477 16.021C23.9254 15.8998 19.9259 20.1103 19.8115 25.4286C19.9259 30.7469 23.9254 34.9574 28.7477 34.8362C32.6062 34.8937 36.0584 32.2015 37.2955 28.1702H32.6471V28.1702ZM28.7477 19.6049C30.8073 19.6095 32.6407 21.0455 33.3231 23.1887H24.1725C24.8549 21.0455 26.6881 19.6095 28.7477 19.6049Z" fill="#2196F3"/>
</svg>
