<?xml version="1.0"?>
<svg xmlns="http://www.w3.org/2000/svg" xmlns:xlink="http://www.w3.org/1999/xlink" version="1.1" id="Capa_1" x="0px" y="0px" viewBox="0 0 512 512" style="enable-background:new 0 0 512 512;" xml:space="preserve" width="512px" height="512px" class=""><g><circle style="fill:#4681D2" cx="255.998" cy="255.999" r="255.998" data-original="#F44E72" class="active-path" data-old_color="#F44E72"/><path style="fill:#F9F9F9;" d="M403.833,30.356v434.664c-4.263,3.02-8.61,5.914-13.051,8.662  c-39.142,24.294-85.326,38.316-134.781,38.316c-93.131,0-174.654-49.737-219.438-124.091c-4.786-7.931-9.143-16.133-13.051-24.597  V30.356c0-6.248,5.068-11.316,11.316-11.316h357.677C398.765,19.04,403.833,24.108,403.833,30.356z" data-original="#F9F9F9" class=""/><path style="fill:#FCFCFC;" d="M390.782,76.373v397.31c-39.142,24.294-85.326,38.316-134.781,38.316  c-93.131,0-174.654-49.737-219.438-124.091V76.373H390.782z" data-original="#FCFCFC" class=""/><circle style="fill:#4681D2" cx="56.738" cy="49.803" r="13.983" data-original="#F44E72" class="active-path" data-old_color="#F44E72"/><circle style="fill:#FFCF4B;" cx="98.68" cy="49.803" r="13.983" data-original="#FFCF4B"/><circle style="fill:#4ACC9A;" cx="142.69" cy="49.803" r="13.983" data-original="#4ACC9A"/><path style="fill:#D6D6D6;" d="M360.851,36.519H193.063c-7.336,0-13.284,5.948-13.284,13.284l0,0  c0,7.336,5.948,13.284,13.284,13.284h167.789c7.336,0,13.284-5.948,13.284-13.284l0,0C374.135,42.466,368.187,36.519,360.851,36.519  z" data-original="#D6D6D6" class=""/><g>
	<rect x="55.515" y="105.034" style="fill:#535B70;" width="220.389" height="17.402" data-original="#535B70" class=""/>
	<rect x="79.433" y="175.052" style="fill:#535B70;" width="237.849" height="17.402" data-original="#535B70" class=""/>
	<rect x="79.433" y="210.056" style="fill:#535B70;" width="237.849" height="17.402" data-original="#535B70" class=""/>
	<rect x="79.433" y="245.07" style="fill:#535B70;" width="118.919" height="17.402" data-original="#535B70" class=""/>
	<rect x="79.433" y="280.074" style="fill:#535B70;" width="237.849" height="17.402" data-original="#535B70" class=""/>
	<rect x="79.433" y="315.088" style="fill:#535B70;" width="52.027" height="17.402" data-original="#535B70" class=""/>
	<rect x="79.433" y="350.092" style="fill:#535B70;" width="237.849" height="17.402" data-original="#535B70" class=""/>
	<rect x="149.357" y="105.034" style="fill:#535B70;" width="39.153" height="17.402" data-original="#535B70" class=""/>
	<rect x="201.089" y="105.034" style="fill:#535B70;" width="149.618" height="17.402" data-original="#535B70" class=""/>
</g><path style="fill:#E8E8E8;" d="M501.551,256.001c0,44.178-9.258,90.038-26.289,132.2c0,0.01-0.01,0.01-0.01,0.01  c-44.826,74.187-126.244,123.788-219.25,123.788c-23.426,0-46.111-3.145-67.667-9.038c-3.511-0.961-7.001-1.996-10.449-3.103  V146.245c0-6.259,5.068-11.327,11.316-11.327h281.953c0.021,0.042,0.052,0.094,0.084,0.146c14.075,26.216,23.719,55.16,27.93,85.848  c0.784,5.736,1.379,11.536,1.776,17.397C501.353,244.151,501.551,250.055,501.551,256.001z" data-original="#E8E8E8"/><path style="fill:#F9F9F9;" d="M512,256.001c0,141.384-114.614,255.998-255.998,255.998c-23.426,0-46.111-3.145-67.667-9.038  V146.245c0-6.259,5.068-11.327,11.316-11.327h281.954c0.021,0.042,0.052,0.094,0.084,0.146c14.075,26.216,23.719,55.16,27.93,85.848  c0.784,5.736,1.379,11.536,1.776,17.397C511.801,244.151,512,250.055,512,256.001z" data-original="#F9F9F9" class=""/><path style="fill:#535B70;" d="M512,256.001c0,24.252-3.375,47.71-9.676,69.935c-1.661,5.893-3.532,11.692-5.611,17.408  c-6.76,18.641-15.632,36.268-26.321,52.61c-3.908,5.977-8.067,11.786-12.445,17.408c-4.765,6.102-9.791,11.974-15.078,17.606  c-5.695,6.092-11.692,11.901-17.962,17.397c-6.719,5.914-13.761,11.473-21.076,16.656c-0.46,0.324-0.909,0.648-1.369,0.951  c-3.824,2.685-7.711,5.256-11.682,7.711c-0.052,0.031-0.115,0.073-0.167,0.104c-4.065,2.518-8.202,4.921-12.424,7.21  c-1.484,0.815-2.978,1.609-4.483,2.382c-35.234,18.296-75.264,28.62-117.707,28.62c-18.745,0-37.02-2.017-54.616-5.841V192.252  h302.611c2.403,9.352,4.284,18.923,5.622,28.661l1.776,17.397C511.801,244.151,512,250.055,512,256.001z" data-original="#535B70" class=""/><circle style="fill:#4681D2" cx="221.559" cy="165.679" r="13.983" data-original="#F44E72" class="active-path" data-old_color="#F44E72"/><circle style="fill:#FFCF4B;" cx="263.511" cy="165.679" r="13.983" data-original="#FFCF4B"/><circle style="fill:#4ACC9A;" cx="307.522" cy="165.679" r="13.983" data-original="#4ACC9A"/><path style="fill:#D6D6D6;" d="M500.214,178.971H357.889c-3.668,0-6.99-1.494-9.394-3.897c-2.403-2.403-3.887-5.726-3.887-9.394  c0-7.335,5.945-13.281,13.281-13.281h132.283C493.986,161.02,497.351,169.891,500.214,178.971z" data-original="#D6D6D6" class=""/><rect x="220.336" y="220.912" style="fill:#3CBC9A;" width="78.305" height="17.402" data-original="#3CBC9A" class=""/><rect x="220.336" y="255.916" style="fill:#6A4BBF;" width="36.125" height="17.402" data-original="#6A4BBF"/><g>
	<rect x="220.336" y="290.93" style="fill:#3CBC9A;" width="78.305" height="17.402" data-original="#3CBC9A" class=""/>
	<rect x="220.336" y="325.934" style="fill:#3CBC9A;" width="78.305" height="17.402" data-original="#3CBC9A" class=""/>
	<rect x="220.336" y="360.948" style="fill:#3CBC9A;" width="78.305" height="17.402" data-original="#3CBC9A" class=""/>
</g><rect x="220.336" y="395.952" style="fill:#6A4BBF;" width="36.125" height="17.402" data-original="#6A4BBF"/><rect x="220.336" y="430.967" style="fill:#3CBC9A;" width="78.305" height="17.402" data-original="#3CBC9A" class=""/><rect x="220.336" y="465.97" style="fill:#6A4BBF;" width="36.125" height="17.402" data-original="#6A4BBF"/><g>
	<rect x="270.052" y="465.97" style="fill:#FCFCFC;" width="63.39" height="17.402" data-original="#FCFCFC" class=""/>
	<path style="fill:#FCFCFC;" d="M402.464,465.971c-3.824,2.685-7.711,5.256-11.682,7.711c-0.052,0.031-0.115,0.073-0.167,0.104   v-7.816H402.464z" data-original="#FCFCFC" class=""/>
</g><path style="fill:#4681D2" d="M378.191,465.971v15.026c-1.484,0.815-2.978,1.609-4.483,2.382h-27.219v-17.408H378.191z" data-original="#F44E72" class="active-path" data-old_color="#F44E72"/><g>
	<rect x="314.178" y="220.912" style="fill:#47ADE0" width="39.153" height="17.402" data-original="#51B0E0" class="" data-old_color="#51B0E0"/>
	<rect x="270.366" y="255.916" style="fill:#47ADE0" width="119.943" height="17.402" data-original="#51B0E0" class="" data-old_color="#51B0E0"/>
</g><g>
	<rect x="314.178" y="290.93" style="fill:#FCFCFC;" width="149.618" height="17.402" data-original="#FCFCFC" class=""/>
	<path style="fill:#FCFCFC;" d="M511.394,238.31h-145.48v-17.397h143.704C510.401,226.649,510.997,232.449,511.394,238.31z" data-original="#FCFCFC" class=""/>
	<rect x="314.178" y="325.934" style="fill:#FCFCFC;" width="19.884" height="17.402" data-original="#FCFCFC" class=""/>
	<path style="fill:#FCFCFC;" d="M502.324,325.935c-1.661,5.893-3.532,11.692-5.611,17.408H410.51v-17.408H502.324z" data-original="#FCFCFC" class=""/>
</g><rect x="345.87" y="325.934" style="fill:#4681D2" width="52.204" height="17.402" data-original="#F44E72" class="active-path" data-old_color="#F44E72"/><rect x="314.178" y="360.948" style="fill:#47ADE0" width="56.55" height="17.402" data-original="#51B0E0" class="" data-old_color="#51B0E0"/><g>
	<rect x="270.366" y="395.952" style="fill:#FCFCFC;" width="77.374" height="17.402" data-original="#FCFCFC" class=""/>
	<path style="fill:#FCFCFC;" d="M470.392,395.953c-3.908,5.977-8.067,11.786-12.445,17.408h-26.31v-17.408H470.392z" data-original="#FCFCFC" class=""/>
</g><rect x="359.85" y="395.952" style="fill:#47ADE0" width="59.977" height="17.402" data-original="#51B0E0" class="" data-old_color="#51B0E0"/><path style="fill:#FCFCFC;" d="M442.87,430.968c-5.695,6.092-11.692,11.901-17.962,17.397H314.181v-17.397H442.87z" data-original="#FCFCFC" class=""/></g> </svg>
