<svg width="27" height="27" viewBox="0 0 27 27" fill="none" xmlns="http://www.w3.org/2000/svg">
<path d="M13.5 26.0652C20.4899 26.0652 26.1562 20.3988 26.1562 13.4089C26.1562 6.41908 20.4899 0.752686 13.5 0.752686C6.51015 0.752686 0.84375 6.41908 0.84375 13.4089C0.84375 20.3988 6.51015 26.0652 13.5 26.0652Z" fill="#EC407A"/>
<path d="M13.5 0C6.05644 0 0 6.05644 0 13.5C0 20.9436 6.05644 27 13.5 27C20.9436 27 27 20.9436 27 13.5C27 6.05644 20.9436 0 13.5 0ZM25.3074 13.6013C22.4488 12.8469 19.5176 12.7592 16.7248 13.3346C16.3434 12.3829 15.9317 11.4463 15.4896 10.5216C18.0157 9.34031 20.3513 7.73888 22.3999 5.75944C24.2072 7.83338 25.3125 10.5367 25.3125 13.5C25.3125 13.5337 25.3074 13.5658 25.3074 13.6013ZM21.2068 4.56806C19.2932 6.41588 17.1163 7.92113 14.7572 9.02138C13.4966 6.60825 12.0218 4.30312 10.3528 2.12625C11.3569 1.84781 12.4082 1.6875 13.5 1.6875C16.4447 1.6875 19.1363 2.77763 21.2068 4.56806ZM8.68556 2.72362C10.3984 4.90388 11.9019 7.22588 13.1827 9.65756C9.639 11.0109 5.7915 11.5307 1.93894 11.0801C2.72025 7.34062 5.2785 4.2525 8.68556 2.72362ZM1.6875 13.5C1.6875 13.2469 1.70944 12.9988 1.72631 12.7508C2.72531 12.8689 3.72431 12.9465 4.71994 12.9465C7.89581 12.9465 11.016 12.3255 13.9404 11.1864C14.3454 12.0302 14.7268 12.8857 15.0795 13.7531C10.9316 14.9985 7.236 17.6546 4.74862 21.4059C2.85356 19.3101 1.6875 16.5409 1.6875 13.5ZM5.98219 22.6041C8.27044 19.0063 11.7602 16.47 15.687 15.3225C16.7535 18.2587 17.5213 21.3081 17.9685 24.4282C16.5898 24.9952 15.0812 25.3125 13.5 25.3125C10.6464 25.3125 8.02575 24.2949 5.98219 22.6041ZM19.5514 23.625C19.0873 20.6516 18.3516 17.7407 17.3441 14.931C19.8939 14.4517 22.5619 14.5648 25.1606 15.2989C24.6156 18.8359 22.5045 21.8531 19.5514 23.625Z" fill="#C2185B"/>
</svg>
