<svg width="27" height="27" viewBox="0 0 27 27" fill="none" xmlns="http://www.w3.org/2000/svg">
<g clip-path="url(#clip0)">
<path d="M13.5 0.5625C6.04125 0.5625 0 6.5025 0 13.8285C0 19.6909 3.86775 24.6623 9.23062 26.415C9.90562 26.5399 10.1531 26.1293 10.1531 25.7771C10.1531 25.4621 10.1419 24.6274 10.1363 23.5215C6.381 24.3214 5.589 21.7418 5.589 21.7418C4.97475 20.2106 4.08712 19.8011 4.08712 19.8011C2.86425 18.9788 4.18163 18.9956 4.18163 18.9956C5.53725 19.0879 6.24937 20.3625 6.24937 20.3625C7.45312 22.3909 9.4095 21.8048 10.1813 21.4661C10.3028 20.6078 10.6504 20.0239 11.0363 19.692C8.03813 19.3601 4.887 18.2194 4.887 13.1366C4.887 11.6888 5.41013 10.5053 6.27637 9.57713C6.1245 9.24188 5.66888 7.893 6.3945 6.066C6.3945 6.066 7.52513 5.7105 10.107 7.42613C11.187 7.13138 12.3345 6.98513 13.482 6.97838C14.6295 6.98513 15.777 7.13138 16.857 7.42613C19.422 5.7105 20.5526 6.066 20.5526 6.066C21.2782 7.893 20.8226 9.24188 20.6876 9.57713C21.5482 10.5053 22.0714 11.6888 22.0714 13.1366C22.0714 18.2329 18.9158 19.3545 15.912 19.6808C16.3845 20.079 16.8233 20.8924 16.8233 22.1355C16.8233 23.9108 16.8064 25.3373 16.8064 25.7681C16.8064 26.1158 17.0426 26.5309 17.7345 26.3981C23.1356 24.6566 27 19.6819 27 13.8285C27 6.5025 20.9554 0.5625 13.5 0.5625V0.5625Z" fill="black"/>
</g>
<defs>
<clipPath id="clip0">
<rect width="27" height="27" fill="white"/>
</clipPath>
</defs>
</svg>
