<svg width="28" height="28" viewBox="0 0 28 28" fill="none" xmlns="http://www.w3.org/2000/svg">
<g clip-path="url(#clip0)">
<path d="M1.75 1.90514C-0.450335 4.19064 -1.49449e-06 6.61847 -1.49449e-06 13.9941C-1.49449e-06 20.1191 -1.06867 26.2593 4.52433 27.7048C6.27083 28.154 21.7455 28.154 23.4897 27.7025C25.8183 27.1016 27.713 25.2128 27.972 21.9193C28.0082 21.4596 28.0082 6.53681 27.9708 6.06781C27.6955 2.55964 25.536 0.537806 22.6905 0.128306C22.0383 0.0338061 21.9077 0.00580608 18.5617 -2.72499e-05C6.69317 0.00580608 4.0915 -0.522694 1.75 1.90514V1.90514Z" fill="url(#paint0_linear)"/>
<path d="M14.1554 3.66208C9.85463 3.66208 5.7706 3.28524 4.21067 7.22858C3.56632 8.85724 3.65989 10.9724 3.65989 14.0011C3.65989 16.6587 3.57343 19.1566 4.21067 20.7724C5.76705 24.7181 9.88424 24.3401 14.153 24.3401C18.2714 24.3401 22.5177 24.7624 24.0966 20.7724C24.7421 19.1274 24.6474 17.0437 24.6474 14.0011C24.6474 9.96208 24.8736 7.35458 22.8849 5.39691C20.8713 3.41358 18.1482 3.66208 14.1507 3.66208H14.1554ZM13.2149 5.52524C22.1861 5.51124 23.3279 4.52891 22.6978 18.1754C22.4739 23.0019 18.7428 22.4722 14.1566 22.4722C5.79429 22.4722 5.55385 22.2366 5.55385 13.9964C5.55385 5.66058 6.21715 5.52991 13.2149 5.52291V5.52524ZM19.7579 7.24141C19.0626 7.24141 18.4988 7.79674 18.4988 8.48158C18.4988 9.16641 19.0626 9.72174 19.7579 9.72174C20.4532 9.72174 21.017 9.16641 21.017 8.48158C21.017 7.79674 20.4532 7.24141 19.7579 7.24141V7.24141ZM14.1554 8.69158C11.1789 8.69158 8.76611 11.0692 8.76611 14.0011C8.76611 16.9329 11.1789 19.3094 14.1554 19.3094C17.132 19.3094 19.5435 16.9329 19.5435 14.0011C19.5435 11.0692 17.132 8.69158 14.1554 8.69158V8.69158ZM14.1554 10.5547C18.7807 10.5547 18.7867 17.4474 14.1554 17.4474C9.53127 17.4474 9.52416 10.5547 14.1554 10.5547Z" fill="white"/>
</g>
<defs>
<linearGradient id="paint0_linear" x1="1.80369" y1="26.2116" x2="27.8267" y2="3.68895" gradientUnits="userSpaceOnUse">
<stop stop-color="#FFDD55"/>
<stop offset="0.5" stop-color="#FF543E"/>
<stop offset="1" stop-color="#C837AB"/>
</linearGradient>
<clipPath id="clip0">
<rect width="28" height="28" fill="white"/>
</clipPath>
</defs>
</svg>
