<svg width="29" height="26" viewBox="0 0 29 26" fill="none" xmlns="http://www.w3.org/2000/svg">
<path d="M28.9927 26V25.999H29V16.4635C29 11.7986 27.8799 8.2052 21.7971 8.2052C18.873 8.2052 16.9106 9.64387 16.1095 11.0078H16.0249V8.6407H10.2575V25.999H16.263V17.4038C16.263 15.1407 16.7415 12.9524 19.8674 12.9524C22.9475 12.9524 22.9934 15.535 22.9934 17.549V26H28.9927Z" fill="#0077B5"/>
<path d="M0.478485 8.64172H6.49115V26H0.478485V8.64172Z" fill="#0077B5"/>
<path d="M3.48242 0C1.55996 0 0 1.39858 0 3.12217C0 4.84575 1.55996 6.27358 3.48242 6.27358C5.40488 6.27358 6.96483 4.84575 6.96483 3.12217C6.96363 1.39858 5.40367 0 3.48242 0V0Z" fill="#0077B5"/>
</svg>
