<svg width="28" height="28" viewBox="0 0 28 28" fill="none" xmlns="http://www.w3.org/2000/svg">
<path d="M14 0C6.28915 0 0.0240784 6.26508 0.0240784 13.9759C0.0240784 19.7108 3.44577 24.6265 8.40961 26.7952C8.36141 25.8313 8.40961 24.6265 8.65059 23.5663C8.93977 22.4096 10.4337 15.9518 10.4337 15.9518C10.4337 15.9518 9.99997 15.0362 9.99997 13.7349C9.99997 11.6626 11.2048 10.1205 12.6987 10.1205C13.9518 10.1205 14.5783 11.0843 14.5783 12.2409C14.5783 13.4939 13.759 15.4216 13.3253 17.2048C12.9879 18.6988 14.0481 19.9035 15.5421 19.9035C18.1927 19.9035 19.9759 16.4818 19.9759 12.4818C19.9759 9.39748 17.9036 7.13246 14.1445 7.13246C9.90356 7.13246 7.253 10.3132 7.253 13.8312C7.253 15.036 7.59033 15.9035 8.16864 16.5782C8.40961 16.8674 8.45782 17.0119 8.36141 17.3493C8.3132 17.5902 8.12043 18.2168 8.07223 18.4577C7.97581 18.795 7.68669 18.9396 7.34936 18.795C5.37346 17.9757 4.50597 15.8553 4.50597 13.4456C4.50597 9.49384 7.83125 4.72276 14.4819 4.72276C19.8312 4.72276 23.3493 8.5782 23.3493 12.7228C23.3493 18.2167 20.3132 22.3131 15.8313 22.3131C14.3373 22.3131 12.8916 21.4938 12.4096 20.5782C12.4096 20.5782 11.5903 23.8071 11.4458 24.4336C11.1566 25.4939 10.5783 26.6023 10.0482 27.4216C11.3012 27.8071 12.6506 27.9999 14 27.9999C21.7108 27.9999 27.9759 21.7348 27.9759 14.024C27.9759 6.31318 21.7108 0 14 0Z" fill="#CB1F24"/>
</svg>
