<?xml version="1.0"?>
<svg xmlns="http://www.w3.org/2000/svg" id="Layer_1" enable-background="new 0 0 512 512" height="512px" viewBox="0 0 512 512" width="512px" class=""><g transform="matrix(1 0 0 1 0 0)"><g><g><g><g id="XMLID_676_"><g id="XMLID_677_"><g id="XMLID_710_"><g id="XMLID_799_"><g id="XMLID_800_"><g id="XMLID_801_"><g id="XMLID_802_"><g id="XMLID_803_"><g id="XMLID_804_"><g id="XMLID_805_"><g id="XMLID_806_"><g id="XMLID_807_"><g id="XMLID_832_"><g id="XMLID_833_"><g id="XMLID_834_"><circle cx="256" cy="256" fill="#ff735c" r="256" data-original="#FF735C" class="active-path" data-old_color="#ff735c" style="fill:#66B7FF"/></g></g></g></g></g></g></g></g></g></g></g></g></g></g></g></g></g><path d="m512 256c0-5.742-.208-11.433-.581-17.081l-37.419-37.419s-5.925 17.513-21.346 23.846l-102.404-102.334-112.38-11.257c-81.873-8.201-152.486 57.04-150.776 139.305l2.75 132.281 125.418 125.419c13.269 2.122 26.872 3.24 40.738 3.24 141.385 0 256-114.615 256-256z" fill="#e85642" data-original="#E85642" class="" style="fill:#66B7FF" data-old_color="#e85642"/><g><path d="m480.409 278.217c-13.754 7.37-28.995 11.368-44.482 11.775 36.142-34.234 38.073-88.492 38.073-88.492s-32.5 33.13-60.99 18.187c-31.904-16.734-56.846-13.637-56.846-13.637 1.729 70.209-28.945 137.308-83.172 181.936l-56.115 46.181c85.056 0 138.146-10.086 180.5-37.038 68.187-43.392 85.544-120.257 85.544-120.257z" fill="#fcd32b" data-original="#FCD32B" class="" style="fill:#FCD32B"/><g><g><g><g><g><path d="m231.877 117.84v100.37h-30v-100.37c4.92-.56 9.93-.84 15-.84s10.08.28 15 .84z" fill="#fff7c5" data-original="#FFF7C5" class="" style="fill:#FFF7C5"/></g><g><path d="m231.88 117.84v100.37h-15v-101.21c5.07 0 10.08.28 15 .84z" fill="#ffde94" data-original="#FFDE94" class="" style="fill:#FFDE94"/></g><g><path d="m231.877 281.79v100.37c-4.92.56-9.93.84-15 .84s-10.08-.28-15-.84v-100.37z" fill="#fff7c5" data-original="#FFF7C5" class="" style="fill:#FFF7C5"/></g><g><g><g><path d="m231.88 281.79v100.37c-4.92.56-9.93.84-15 .84v-101.21z" fill="#ffde94" data-original="#FFDE94" class="" style="fill:#FFDE94"/></g></g></g></g><g><g><g><path d="m349.877 250c0 5.07-.28 10.08-.84 15h-100.37v-30h100.37c.56 4.92.84 9.93.84 15z" fill="#ffde94" data-original="#FFDE94" class="" style="fill:#FFDE94"/></g></g><g><path d="m185.087 235v30h-100.37c-.56-4.92-.84-9.93-.84-15s.28-10.08.84-15z" fill="#fff7c5" data-original="#FFF7C5" class="" style="fill:#FFF7C5"/></g></g><g><g><g><path d="m320.927 167.16-67.83 67.84-3.13 3.13-1.3-1.3-18.62-18.62-1.3-1.3 3.13-3.13 67.84-67.83c7.84 6.25 14.96 13.37 21.21 21.21z" fill="#ffde94" data-original="#FFDE94" class="" style="fill:#FFDE94"/></g></g><g><path d="m205.007 283.09-3.13 3.13-67.84 67.83c-7.84-6.25-14.96-13.37-21.21-21.21l67.83-67.84 3.13-3.13 1.3 1.3 18.62 18.62z" fill="#fff7c5" data-original="#FFF7C5" class="" style="fill:#FFF7C5"/></g></g><g><g><g><path d="m320.927 332.84c-6.25 7.84-13.37 14.96-21.21 21.21l-67.84-67.83-3.13-3.13 1.3-1.3 18.62-18.62 1.3-1.3 3.13 3.13z" fill="#ffde94" data-original="#FFDE94" class="" style="fill:#FFDE94"/></g></g><g><path d="m205.007 216.91-1.3 1.3-18.62 18.62-1.3 1.3-3.13-3.13-67.83-67.84c6.25-7.84 13.37-14.96 21.21-21.21l67.84 67.83z" fill="#fff7c5" data-original="#FFF7C5" class="" style="fill:#FFF7C5"/></g></g></g><path d="m216.877 65.833c-101.713 0-184.167 82.455-184.167 184.167s82.454 184.167 184.167 184.167 184.166-82.455 184.166-184.167-82.454-184.167-184.166-184.167zm0 319.893c-74.96 0-135.727-60.766-135.727-135.726s60.767-135.726 135.726-135.726c74.96 0 135.726 60.767 135.726 135.726s-60.766 135.726-135.725 135.726z" fill="#3d5d72" data-original="#3D5D72" class="" style="fill:#3D5D72"/><path d="m216.88 65.83v48.44c74.96 0 135.72 60.77 135.72 135.73s-60.76 135.73-135.72 135.73v48.44c101.71 0 184.16-82.46 184.16-184.17s-82.45-184.17-184.16-184.17z" fill="#244654" data-original="#244654" class="" style="fill:#244654"/></g><path d="m216.877 96.333c-84.868 0-153.667 68.799-153.667 153.667s68.799 153.667 153.667 153.667 153.667-68.799 153.667-153.667-68.8-153.667-153.667-153.667zm0 274.667c-66.826 0-121-54.173-121-121s54.174-121 121-121 121 54.174 121 121-54.174 121-121 121z" fill="#4e7184" data-original="#4E7184" class="" style="fill:#4E7184" data-old_color="#4e7184"/><path d="m216.88 96.33v32.67c5.08 0 10.09.31 15 .92 59.74 7.39 106 58.33 106 120.08s-46.26 112.69-106 120.08c-4.91.61-9.92.92-15 .92v32.67c84.86 0 153.66-68.8 153.66-153.67s-68.8-153.67-153.66-153.67z" fill="#3d5d72" data-original="#3D5D72" class="" style="fill:#3D5D72"/></g><circle cx="216.877" cy="250" fill="#4e7184" r="42.333" data-original="#4E7184" class="" style="fill:#4E7184" data-old_color="#4e7184"/><path d="m259.21 250c0 18.1-11.35 33.54-27.33 39.59-4.66 1.77-9.72 2.74-15 2.74v-84.66c5.28 0 10.34.97 15 2.74 15.98 6.05 27.33 21.49 27.33 39.59z" fill="#3d5d72" data-original="#3D5D72" class="" style="fill:#3D5D72"/></g></g></g> </svg>
