<svg id="Capa_1" enable-background="new 0 0 501 501" height="512" viewBox="0 0 501 501" width="512" xmlns="http://www.w3.org/2000/svg"><g><path d="m5.5 245c0-135.144 109.422-244.732 244.503-245 134.857-.267 245.212 109.616 245.496 244.472.149 70.512-29.491 134.103-77.038 178.894-43.858-41.315-102.953-66.634-167.961-66.634-59.604 0-114.236 21.284-156.711 56.667-6.66 5.548-16.498 5.09-22.413-1.246-40.867-43.775-65.876-102.544-65.876-167.153z" fill="#172a7d"/><path d="m308.352 24.437 68.024 96.021c.911 1.286 1.505 2.768 1.734 4.327l34.254 233.102c.378 2.574-.274 5.186-1.782 7.306-34.471 48.484-87.906 83.371-151.41 92.703-63.505 9.332-124.717-8.708-171.679-45.226-2.054-1.597-3.43-3.91-3.809-6.485l-46.671-317.596c-.761-5.176 2.597-10.064 7.701-11.211l253.285-56.918c3.937-.884 8.02.684 10.353 3.977z" fill="#49b4fa"/><path d="m352.001 50.877 77.403 96.754c.709.887 1.096 1.988 1.096 3.123v260.455c-44.761 48.451-108.837 78.791-180 78.791s-135.239-30.34-180-78.791v-347.209c0-8.284 6.716-15 15-15h262.597c1.519 0 2.955.69 3.904 1.877z" fill="#bbe0fb"/><path d="m94.5 433.924c-8.501-7.028-16.52-14.618-24-22.714v-347.21c0-8.284 6.716-15 15-15h24c-8.284 0-15 6.716-15 15z" fill="#91cefb"/><path d="m352.001 50.876 77.404 96.755c.332.415.593.878.777 1.369h-69.682c-5.523 0-10-4.477-10-10v-89.385c.572.314 1.084.74 1.501 1.261z" fill="#fff5f5"/><path d="m122 111.5c0-4.142 3.358-7.5 7.5-7.5h65c4.142 0 7.5 3.358 7.5 7.5s-3.358 7.5-7.5 7.5h-65c-4.142 0-7.5-3.358-7.5-7.5zm175 37.5h-167.5c-4.142 0-7.5 3.358-7.5 7.5s3.358 7.5 7.5 7.5h167.5c4.142 0 7.5-3.358 7.5-7.5s-3.358-7.5-7.5-7.5zm-70 30h-97.5c-4.142 0-7.5 3.358-7.5 7.5s3.358 7.5 7.5 7.5h97.5c4.142 0 7.5-3.358 7.5-7.5s-3.358-7.5-7.5-7.5zm-30 120h-67.5c-4.142 0-7.5 3.358-7.5 7.5s3.358 7.5 7.5 7.5h67.5c4.142 0 7.5-3.358 7.5-7.5s-3.358-7.5-7.5-7.5zm92.5 0h-27.5c-4.142 0-7.5 3.358-7.5 7.5s3.358 7.5 7.5 7.5h27.5c4.142 0 7.5-3.358 7.5-7.5s-3.358-7.5-7.5-7.5z" fill="#49b4fa"/><path d="m374.5 306.5c0 4.142-3.358 7.5-7.5 7.5h-27.5c-4.142 0-7.5-3.358-7.5-7.5s3.358-7.5 7.5-7.5h27.5c4.142 0 7.5 3.358 7.5 7.5zm-197.5 117.5h-47.5c-4.142 0-7.5 3.358-7.5 7.5s3.358 7.5 7.5 7.5h47.5c4.142 0 7.5-3.358 7.5-7.5s-3.358-7.5-7.5-7.5zm112.5 0h-37.5c-4.142 0-7.5 3.358-7.5 7.5 0 4.142 3.358 7.5 7.5 7.5h37.5c4.142 0 7.5-3.358 7.5-7.5 0-4.142-3.358-7.5-7.5-7.5z" fill="#0280e3"/><path d="m394.5 224v50c0 2.761-2.239 5-5 5h-280c-2.761 0-5-2.239-5-5v-50c0-2.761 2.239-5 5-5h280c2.761 0 5 2.239 5 5zm-5 110h-280c-2.761 0-5 2.239-5 5v50c0 2.761 2.239 5 5 5h280c2.761 0 5-2.239 5-5v-50c0-2.761-2.239-5-5-5z" fill="#5de0c3"/><path d="m374.5 249c0 4.142-3.358 7.5-7.5 7.5h-27.5c-4.142 0-7.5-3.358-7.5-7.5s3.358-7.5 7.5-7.5h27.5c4.142 0 7.5 3.358 7.5 7.5z" fill="#01988c"/><path d="m254.5 249c0-4.142 3.358-7.5 7.5-7.5h27.5c4.142 0 7.5 3.358 7.5 7.5s-3.358 7.5-7.5 7.5h-27.5c-4.142 0-7.5-3.358-7.5-7.5zm-87.5 107.5h-37.5c-4.142 0-7.5 3.358-7.5 7.5s3.358 7.5 7.5 7.5h37.5c4.142 0 7.5-3.358 7.5-7.5s-3.358-7.5-7.5-7.5zm122.5 0h-27.5c-4.142 0-7.5 3.358-7.5 7.5s3.358 7.5 7.5 7.5h27.5c4.142 0 7.5-3.358 7.5-7.5s-3.358-7.5-7.5-7.5zm-112.5-115h-47.5c-4.142 0-7.5 3.358-7.5 7.5s3.358 7.5 7.5 7.5h47.5c4.142 0 7.5-3.358 7.5-7.5s-3.358-7.5-7.5-7.5z" fill="#0ab59e"/><path d="m490.084 479.539-26.986-10.144c-4.617-1.735-9.81.155-12.231 4.452l-14.152 25.117c-1.677 2.977-6.075 2.616-7.244-.595l-34.648-95.194 65.778-23.941 34.648 95.194c1.17 3.21-1.966 6.313-5.165 5.111z" fill="#fd2aa7"/><path d="m418.5 403.174-34.648 95.194c-1.169 3.211-5.566 3.573-7.244.595l-14.152-25.117c-2.421-4.297-7.614-6.187-12.231-4.452l-26.986 10.144c-3.199 1.202-6.335-1.901-5.166-5.112l34.648-95.194z" fill="#d80d80"/><path d="m477.441 376.14c-4.109 5.317-5.908 12.031-5.008 18.691.5 3.696-.006 7.031-1.635 9.853s-4.265 4.928-7.715 6.343c-6.218 2.55-11.132 7.465-13.683 13.683-1.415 3.45-3.521 6.086-6.343 7.715s-6.158 2.135-9.853 1.635c-6.66-.9-13.373.899-18.691 5.008-2.951 2.28-6.092 3.51-9.351 3.51s-6.4-1.23-9.351-3.51c-5.317-4.11-12.031-5.908-18.691-5.008-3.695.5-7.031-.006-9.853-1.635s-4.928-4.265-6.343-7.715c-2.55-6.218-7.465-11.133-13.683-13.683-3.45-1.415-6.086-3.521-7.715-6.343s-2.135-6.158-1.635-9.853c.9-6.66-.899-13.374-5.008-18.691-2.28-2.95-3.51-6.092-3.51-9.351s1.23-6.4 3.51-9.351c4.109-5.317 5.909-12.031 5.008-18.691-.5-3.695.006-7.031 1.635-9.853s4.265-4.928 7.715-6.343c6.218-2.55 11.133-7.465 13.683-13.683 1.415-3.45 3.521-6.086 6.343-7.715s6.158-2.135 9.853-1.635c6.66.9 13.374-.899 18.691-5.008 2.951-2.28 6.092-3.51 9.351-3.51s6.4 1.23 9.351 3.51c5.317 4.109 12.031 5.908 18.691 5.008 3.695-.5 7.031.006 9.853 1.635s4.928 4.265 6.343 7.715c2.55 6.218 7.465 11.133 13.683 13.683 3.45 1.415 6.086 3.521 7.715 6.343s2.135 6.158 1.635 9.853c-.9 6.66.899 13.374 5.008 18.691 2.28 2.95 3.51 6.092 3.51 9.351s-1.229 6.401-3.51 9.351z" fill="#fda800"/><path d="m460.951 366.79c0 30.812-24.978 55.79-55.79 55.79s-55.789-24.978-55.789-55.79 24.978-55.79 55.789-55.79c30.813 0 55.79 24.978 55.79 55.79z" fill="#e27500"/><path d="m460.951 366.79c0 30.812-24.978 55.79-55.79 55.79-2.692 0-5.339-.191-7.929-.56-13.976-12.392-23.065-32.513-23.065-55.23s9.089-42.838 23.065-55.23c2.59-.369 5.238-.56 7.929-.56 30.813 0 55.79 24.978 55.79 55.79z" fill="#f57e00"/><path d="m469.471 330.769-61.324 61.324c-1.464 1.464-3.384 2.197-5.303 2.197s-3.839-.732-5.303-2.197l-29.202-29.202c-2.929-2.929-2.929-7.678 0-10.606 2.929-2.929 7.678-2.929 10.606 0l23.899 23.899 56.021-56.021c2.929-2.929 7.678-2.929 10.606 0 2.929 2.928 2.929 7.677 0 10.606z" fill="#f5dc90"/><path d="m469.471 330.769-38.308 38.308c-2.929 2.929-7.678 2.929-10.606 0-2.929-2.929-2.929-7.678 0-10.606l38.085-38.085c2.904-2.904 7.674-3.199 10.664-.384 3.093 2.912 3.148 7.784.165 10.767z" fill="#fff5f5"/></g></svg>